<?xml version="1.0" encoding="UTF-8" standalone="no"?>
<svg
   xmlns:dc="http://purl.org/dc/elements/1.1/"
   xmlns:cc="http://creativecommons.org/ns#"
   xmlns:rdf="http://www.w3.org/1999/02/22-rdf-syntax-ns#"
   xmlns:svg="http://www.w3.org/2000/svg"
   xmlns="http://www.w3.org/2000/svg"
   xmlns:xlink="http://www.w3.org/1999/xlink"
   xmlns:sodipodi="http://sodipodi.sourceforge.net/DTD/sodipodi-0.dtd"
   xmlns:inkscape="http://www.inkscape.org/namespaces/inkscape"
   id="svg4715"
   height="32"
   width="32"
   version="1.1"
   inkscape:version="0.91 r13725"
   sodipodi:docname="com.github.tintou.emphasis.svg">
  <sodipodi:namedview
     pagecolor="#ffffff"
     bordercolor="#666666"
     borderopacity="1"
     objecttolerance="10"
     gridtolerance="10"
     guidetolerance="10"
     inkscape:pageopacity="0"
     inkscape:pageshadow="2"
     inkscape:window-width="3200"
     inkscape:window-height="1674"
     id="namedview55"
     showgrid="true"
     inkscape:zoom="22.627417"
     inkscape:cx="12.731576"
     inkscape:cy="12.412663"
     inkscape:window-x="0"
     inkscape:window-y="60"
     inkscape:window-maximized="1"
     inkscape:current-layer="g4325"
     showguides="false"
     fit-margin-top="0"
     fit-margin-left="0"
     fit-margin-right="0"
     fit-margin-bottom="0">
    <inkscape:grid
       type="xygrid"
       id="grid3383"
       originx="-10"
       originy="-10" />
  </sodipodi:namedview>
  <defs
     id="defs4717">
    <linearGradient
       id="linearGradient4235">
      <stop
         offset="0"
         style="stop-color:#ffffff;stop-opacity:1"
         id="stop4237" />
      <stop
         offset="0"
         style="stop-color:#ffffff;stop-opacity:0.23529412"
         id="stop4239" />
      <stop
         offset="1"
         style="stop-color:#ffffff;stop-opacity:0.15686275"
         id="stop4241" />
      <stop
         offset="1"
         style="stop-color:#ffffff;stop-opacity:0.39215687"
         id="stop4243" />
    </linearGradient>
    <linearGradient
       id="linearGradient4549-5">
      <stop
         offset="0"
         style="stop-color:#000000;stop-opacity:0.27205881"
         id="stop4551-9" />
      <stop
         offset="1"
         style="stop-color:#000000;stop-opacity:0.36764705"
         id="stop4553-0" />
    </linearGradient>
    <linearGradient
       id="linearGradient3924-64-9">
      <stop
         id="stop3926-3-6-7"
         style="stop-color:#ffffff;stop-opacity:1"
         offset="0" />
      <stop
         id="stop3928-0-0"
         style="stop-color:#ffffff;stop-opacity:0.23529412"
         offset="0.06316455" />
      <stop
         id="stop3930-3-59-6"
         style="stop-color:#ffffff;stop-opacity:0.15686275"
         offset="0.95056331" />
      <stop
         id="stop3932-0-30"
         style="stop-color:#ffffff;stop-opacity:0.39215687"
         offset="1" />
    </linearGradient>
    <linearGradient
       id="linearGradient5803-0">
      <stop
         id="stop5805-3"
         style="stop-color:#fff5ef;stop-opacity:1"
         offset="0" />
      <stop
         id="stop5807-4"
         style="stop-color:#fef8dd;stop-opacity:1"
         offset="1" />
    </linearGradient>
    <linearGradient
       id="linearGradient2867-449-88-871-390-598-476-591-434-148-57-177-8-3-3-6-4-8-8-8">
      <stop
         id="stop3750-1-0-7-6-6-1-3-9"
         style="stop-color:#ffcd7d;stop-opacity:1"
         offset="0" />
      <stop
         id="stop3752-3-7-4-0-32-8-923-0"
         style="stop-color:#fc8f36;stop-opacity:1"
         offset="0.26238" />
      <stop
         id="stop3754-1-8-5-2-7-6-7-1"
         style="stop-color:#e23a0e;stop-opacity:1"
         offset="0.704952" />
      <stop
         id="stop3756-1-6-2-6-6-1-96-6"
         style="stop-color:#ac441f;stop-opacity:1"
         offset="1" />
    </linearGradient>
    <linearGradient
       id="linearGradient4632-0-6-4-6-7-0">
      <stop
         id="stop4634-4-4-7-1-8-4"
         style="stop-color:#94ce58;stop-opacity:1"
         offset="0" />
      <stop
         id="stop4636-3-1-5-7-5-2"
         style="stop-color:#009f00;stop-opacity:1"
         offset="1" />
    </linearGradient>
    <linearGradient
       id="linearGradient5048-2-2">
      <stop
         id="stop5050-3-3"
         style="stop-color:#000000;stop-opacity:0"
         offset="0" />
      <stop
         id="stop5056-5-7"
         style="stop-color:#000000;stop-opacity:1"
         offset="0.5" />
      <stop
         id="stop5052-02-4"
         style="stop-color:#000000;stop-opacity:0"
         offset="1" />
    </linearGradient>
    <radialGradient
       cx="6.7304144"
       cy="9.9571075"
       r="12.671875"
       fx="6.2001843"
       fy="9.9571075"
       id="radialGradient5600-7"
       xlink:href="#linearGradient2867-449-88-871-390-598-476-591-434-148-57-177-8-3-3-6-4-8-8-8"
       gradientUnits="userSpaceOnUse"
       gradientTransform="matrix(0,6.0881746,-7.4743333,0,90.95548,-49.769855)" />
    <linearGradient
       x1="23.99999"
       y1="4.999989"
       x2="23.99999"
       y2="43"
       id="linearGradient4161"
       xlink:href="#linearGradient3924-64-9"
       gradientUnits="userSpaceOnUse"
       gradientTransform="matrix(0.62162164,0,0,0.62162164,1.0810794,2.0810903)" />
    <linearGradient
       x1="167.98311"
       y1="8.50811"
       x2="167.98311"
       y2="54.780239"
       id="linearGradient5915"
       xlink:href="#linearGradient5803-0"
       gradientUnits="userSpaceOnUse"
       gradientTransform="matrix(0.42210105,0,0,0.42210105,-52.55959,2.7747873)" />
    <linearGradient
       gradientTransform="matrix(0.62162165,0,0,0.64864874,9.0810373,14.932452)"
       gradientUnits="userSpaceOnUse"
       xlink:href="#linearGradient4235"
       id="linearGradient7191-5-0"
       y2="41.72913"
       x2="23.99999"
       y1="6.2708025"
       x1="23.99999" />
    <radialGradient
       gradientTransform="matrix(0.01606479,0,0,0.0082353,26.318386,39.98055)"
       gradientUnits="userSpaceOnUse"
       xlink:href="#linearGradient4549-5"
       id="radialGradient4965-9-7"
       fy="486.64789"
       fx="605.71429"
       r="117.14286"
       cy="486.64789"
       cx="605.71429" />
    <radialGradient
       gradientTransform="matrix(-0.01606479,0,0,0.0082353,21.681613,39.98055)"
       gradientUnits="userSpaceOnUse"
       xlink:href="#linearGradient4549-5"
       id="radialGradient4968-3-5"
       fy="486.64789"
       fx="605.71429"
       r="117.14286"
       cy="486.64789"
       cx="605.71429" />
    <linearGradient
       gradientTransform="matrix(0.04970415,0,0,0.0082353,6.0355058,39.98054)"
       gradientUnits="userSpaceOnUse"
       xlink:href="#linearGradient5048-2-2"
       id="linearGradient12979-1"
       y2="609.50507"
       x2="302.85715"
       y1="366.64789"
       x1="302.85715" />
    <radialGradient
       gradientUnits="userSpaceOnUse"
       gradientTransform="matrix(-4.8994085,-4.2535951e-8,3.7936191e-8,-4.1538464,82.79286,39.898075)"
       r="6.5"
       fy="5.6749892"
       fx="12"
       cy="5.6749892"
       cx="12"
       id="radialGradient4223-2"
       xlink:href="#linearGradient4632-0-6-4-6-7-0" />
    <linearGradient
       x1="13.236"
       y1="37.751999"
       x2="7.7521"
       y2="42.282001"
       id="linearGradient5652"
       gradientUnits="userSpaceOnUse"
       gradientTransform="matrix(0.8523,0,0,0.85278,-7.43282,4.3592996)">
      <stop
         id="stop2448"
         style="stop-color:#ffffff;stop-opacity:1"
         offset="0" />
      <stop
         id="stop2450"
         style="stop-color:#ffffff;stop-opacity:0"
         offset="1" />
    </linearGradient>
    <radialGradient
       cx="15.415"
       cy="35.356998"
       r="7.5791998"
       id="radialGradient5658"
       gradientUnits="userSpaceOnUse"
       gradientTransform="matrix(0.99466,0,0,0.96987,-10.3407,0.76929955)">
      <stop
         id="stop6965"
         style="stop-color:#696969;stop-opacity:1"
         offset="0" />
      <stop
         id="stop6967"
         style="stop-color:#000000;stop-opacity:1"
         offset="1" />
    </radialGradient>
    <linearGradient
       x1="19.395"
       y1="30.000999"
       x2="23.108999"
       y2="33.438999"
       id="linearGradient5662"
       gradientUnits="userSpaceOnUse"
       gradientTransform="matrix(1,0,0,1.0006,-9.6647,-1.2006304)">
      <stop
         id="stop6941"
         style="stop-color:#bdbdbd;stop-opacity:1"
         offset="0" />
      <stop
         id="stop6947"
         style="stop-color:#e2e2e2;stop-opacity:1"
         offset="0.33333001" />
      <stop
         id="stop6949"
         style="stop-color:#a3a3a3;stop-opacity:1"
         offset="0.66667002" />
      <stop
         id="stop6943"
         style="stop-color:#dddddd;stop-opacity:1"
         offset="1" />
    </linearGradient>
    <linearGradient
       x1="28.059"
       y1="18.868"
       x2="33.437"
       y2="23.743"
       id="linearGradient5665"
       gradientUnits="userSpaceOnUse"
       gradientTransform="matrix(1,0,0,1.0006,-9.6647,-1.2006304)">
      <stop
         id="stop6953"
         style="stop-color:#6e3d09;stop-opacity:1"
         offset="0" />
      <stop
         id="stop6959"
         style="stop-color:#ea8113;stop-opacity:1"
         offset="0.24242" />
      <stop
         id="stop6961"
         style="stop-color:#5c3307;stop-opacity:1"
         offset="0.62120998" />
      <stop
         id="stop6955"
         style="stop-color:#e07c12;stop-opacity:1"
         offset="1" />
    </linearGradient>
    <linearGradient
       inkscape:collect="always"
       xlink:href="#linearGradient2867-449-88-871-390-598-476-591-434-148-57-177-8-3-3-6-4-8-8-8"
       id="linearGradient4323"
       x1="23"
       y1="18"
       x2="22.8125"
       y2="33"
       gradientUnits="userSpaceOnUse"
       gradientTransform="matrix(1,0,0,0.78935056,0,3.7916898)" />
  </defs>
  <metadata
     id="metadata4720">
    <rdf:RDF>
      <cc:Work
         rdf:about="">
        <dc:format>image/svg+xml</dc:format>
        <dc:type
           rdf:resource="http://purl.org/dc/dcmitype/StillImage" />
        <dc:title></dc:title>
      </cc:Work>
    </rdf:RDF>
  </metadata>
  <g
     id="g4325"
     transform="translate(-10,-13)">
    <g
       id="g4366"
       transform="translate(2,-2)">
      <rect
         width="24"
         height="2"
         x="12"
         y="43"
         id="rect2879-7-9"
         style="display:inline;overflow:visible;visibility:visible;opacity:0.15;fill:url(#linearGradient12979-1);fill-opacity:1;fill-rule:nonzero;stroke:none;stroke-width:1;marker:none" />
      <path
         d="m 12,43.00008 c 0,0 0,1.999891 0,1.999891 -0.827293,0.004 -2,-0.44808 -2,-1.00008 0,-0.552 0.9232,-0.999811 2,-0.999811 z"
         id="path2881-0-6"
         style="display:inline;overflow:visible;visibility:visible;opacity:0.15;fill:url(#radialGradient4968-3-5);fill-opacity:1;fill-rule:nonzero;stroke:none;stroke-width:1;marker:none"
         inkscape:connector-curvature="0" />
      <path
         d="m 36,43.00008 c 0,0 0,1.999891 0,1.999891 0.827294,0.004 2,-0.44808 2,-1.00008 0,-0.552 -0.9232,-0.999811 -2,-0.999811 z"
         id="path2883-3-4"
         style="display:inline;overflow:visible;visibility:visible;opacity:0.15;fill:url(#radialGradient4965-9-7);fill-opacity:1;fill-rule:nonzero;stroke:none;stroke-width:1;marker:none"
         inkscape:connector-curvature="0" />
      <rect
         width="18"
         height="27"
         rx="0"
         ry="0"
         x="15"
         y="17"
         id="rect3457-8-4"
         style="display:inline;fill:url(#radialGradient4223-2);fill-opacity:1;stroke:none;stroke-width:0.99999994;stroke-linecap:butt;stroke-linejoin:miter;stroke-miterlimit:4;stroke-dasharray:none;stroke-dashoffset:0;stroke-opacity:0.83137255" />
      <path
         style="color:#000000;font-style:normal;font-variant:normal;font-weight:normal;font-stretch:normal;font-size:medium;line-height:normal;font-family:sans-serif;text-indent:0;text-align:start;text-decoration:none;text-decoration-line:none;text-decoration-style:solid;text-decoration-color:#000000;letter-spacing:normal;word-spacing:normal;text-transform:none;direction:ltr;block-progression:tb;writing-mode:lr-tb;baseline-shift:baseline;text-anchor:start;white-space:normal;clip-rule:nonzero;display:inline;overflow:visible;visibility:visible;opacity:0.7;isolation:auto;mix-blend-mode:normal;color-interpolation:sRGB;color-interpolation-filters:linearRGB;solid-color:#000000;solid-opacity:1;fill:#000000;fill-opacity:1;fill-rule:nonzero;stroke:none;stroke-width:0.99999994;stroke-linecap:round;stroke-linejoin:round;stroke-miterlimit:4;stroke-dasharray:none;stroke-dashoffset:0;stroke-opacity:1;marker:none;color-rendering:auto;image-rendering:auto;shape-rendering:auto;text-rendering:auto;enable-background:accumulate"
         d="M 11.650391,17 C 11.29142,17.000036 11.000036,17.287553 11,17.642578 l 0,25.714844 c 3.6e-5,0.355025 0.29142,0.642542 0.650391,0.642578 l 3.25,0 18.199218,0 3.25,0 C 36.708579,43.999964 36.999963,43.712447 37,43.357422 L 37,17.642578 C 36.999963,17.287553 36.708579,17.000036 36.349609,17 l -3.25,0 -18.199218,0 -3.25,0 z M 16,18 l 15.800781,0 0,25 L 16,43 16,18 Z m -3.5,2 2,0 0,1 -2,0 0,-1 z m 21,0 2,0 0,1 -2,0 0,-1 z m -21,3 2,0 0,1 -2,0 0,-1 z m 21,0 2,0 0,1 -2,0 0,-1 z m -21,3 2,0 0,1 -2,0 0,-1 z m 21,0 2,0 0,1 -2,0 0,-1 z m -21,3 2,0 0,1 -2,0 0,-1 z m 21,0 2,0 0,1 -2,0 0,-1 z m -21,3 2,0 0,1 -2,0 0,-1 z m 21,0 2,0 0,1 -2,0 0,-1 z m -21,3 2,0 0,1 -2,0 0,-1 z m 21,0 2,0 0,1 -2,0 0,-1 z m -21,3 2,0 0,1 -2,0 0,-1 z m 21,0 2,0 0,1 -2,0 0,-1 z m -21,3 2,0 0,1 -2,0 0,-1 z m 21,0 2,0 0,1 -2,0 0,-1 z"
         id="rect5505-21-2-1"
         inkscape:connector-curvature="0" />
      <path
         d="m 16.495841,30.497916 c 4.937817,0 9.87566,0 14.813476,0"
         id="path4320-2-8"
         style="display:block;overflow:visible;visibility:visible;opacity:0.7;fill:none;stroke:#000000;stroke-width:0.99583185;stroke-linecap:square;stroke-linejoin:round;stroke-miterlimit:4;stroke-dasharray:none;stroke-dashoffset:0;stroke-opacity:1;marker:none"
         inkscape:connector-curvature="0" />
      <path
         d="m 16.495147,31.497568 c 4.930927,0 9.861854,0 14.792766,0"
         id="path4820-2-4"
         style="display:block;overflow:visible;visibility:visible;opacity:0.36637932;fill:none;stroke:#ffffff;stroke-width:0.99513549;stroke-linecap:square;stroke-linejoin:round;stroke-miterlimit:4;stroke-dasharray:none;stroke-dashoffset:0;stroke-opacity:1;marker:none"
         inkscape:connector-curvature="0" />
      <path
         style="opacity:0.85;fill:url(#linearGradient4323);fill-opacity:1;fill-rule:evenodd;stroke:none;stroke-width:1px;stroke-linecap:butt;stroke-linejoin:miter;stroke-opacity:0.32962964"
         d="m 31.8,21.952905 c -0.494946,1.4e-5 -2.695351,1.205479 -3.615723,1.4639 -0.844882,0.237225 -1.007395,-0.168935 -2.254224,-0.06039 -0.953678,0.08302 -1.522765,0.222604 -2.102627,0.673068 -0.331812,0.257766 -0.539147,0.682992 -0.665506,1.066529 -0.29297,0.889256 -0.425182,1.509323 -0.178623,2.752892 1.532328,3.076712 -2.245441,2.498865 -0.4928,-0.01545 0.540753,-1.093648 9.67e-4,-1.999962 -0.59816,-2.831965 C 21.563356,24.54463 20.909009,24.289059 20.367701,23.983151 20.15146,23.860954 19.897766,23.783554 19.683561,23.659138 19.163198,23.356896 18.787416,22.907981 18.237112,22.640817 17.554628,22.309482 17,21.946753 16,21.946753 L 16,18 31.8,18 Z"
         id="path4313"
         inkscape:connector-curvature="0"
         sodipodi:nodetypes="cssaaccaaaacccc" />
      <rect
         width="23.000002"
         height="24"
         x="12.5"
         y="18.499998"
         id="rect6741-0-3-5-9"
         style="opacity:0.5;fill:none;stroke:url(#linearGradient7191-5-0);stroke-width:0.99999976;stroke-linecap:round;stroke-linejoin:miter;stroke-miterlimit:4;stroke-dasharray:none;stroke-dashoffset:0;stroke-opacity:1" />
      <path
         style="color:#000000;display:inline;overflow:visible;visibility:visible;opacity:0.3;fill:#e6e6e6;fill-opacity:1;fill-rule:nonzero;stroke:none;stroke-width:1;marker:none;enable-background:accumulate"
         d="m 12.5,20 0,1 2,0 0,-1 -2,0 z m 21,0 0,1 2,0 0,-1 -2,0 z m -21,3 0,1 2,0 0,-1 -2,0 z m 21,0 0,1 2,0 0,-1 -2,0 z m -21,3 0,1 2,0 0,-1 -2,0 z m 21,0 0,1 2,0 0,-1 -2,0 z m -21,3 0,1 2,0 0,-1 -2,0 z m 21,0 0,1 2,0 0,-1 -2,0 z m -21,3 0,1 2,0 0,-1 -2,0 z m 21,0 0,1 2,0 0,-1 -2,0 z m -21,3 0,1 2,0 0,-1 -2,0 z m 21,0 0,1 2,0 0,-1 -2,0 z m -21,3 0,1 2,0 0,-1 -2,0 z m 21,0 0,1 2,0 0,-1 -2,0 z m -21,3 0,1 2,0 0,-1 -2,0 z m 21,0 0,1 2,0 0,-1 -2,0 z"
         id="path3397"
         inkscape:connector-curvature="0" />
    </g>
  </g>
</svg>
